<svg width="48" height="48" viewBox="0 0 48 48" fill="none" xmlns="http://www.w3.org/2000/svg">
<path fill-rule="evenodd" clip-rule="evenodd" d="M30.4 0H6.72C3.00865 0 0 3.00864 0 6.72V41.28C0 44.9914 3.00865 48 6.72 48H41.28C44.9914 48 48 44.9914 48 41.28V6.72C48 3.40551 45.6004 0.651469 42.4436 0.100385L33.1854 10.3136C32.2025 11.398 30.4 10.7026 30.4 9.23901V0ZM8.32 16.8C8.32 16.0047 8.96471 15.36 9.76 15.36H38.88C39.6753 15.36 40.32 16.0047 40.32 16.8C40.32 17.5953 39.6753 18.24 38.88 18.24H9.76C8.96471 18.24 8.32 17.5953 8.32 16.8ZM9.76 22.4C8.96471 22.4 8.32 23.0447 8.32 23.84C8.32 24.6353 8.96471 25.28 9.76 25.28H38.88C39.6753 25.28 40.32 24.6353 40.32 23.84C40.32 23.0447 39.6753 22.4 38.88 22.4H9.76ZM8.32 31.2C8.32 30.4047 8.96471 29.76 9.76 29.76H38.88C39.6753 29.76 40.32 30.4047 40.32 31.2C40.32 31.9953 39.6753 32.64 38.88 32.64H9.76C8.96471 32.64 8.32 31.9953 8.32 31.2ZM7.36 44.8C9.48077 44.8 11.2 43.0808 11.2 40.96C11.2 38.8392 9.48077 37.12 7.36 37.12C5.23923 37.12 3.52 38.8392 3.52 40.96C3.52 43.0808 5.23923 44.8 7.36 44.8Z" fill="#4ABCA1"/>
</svg>
